Coordinates
version=1
nRows=10
nColumns=27
inDegrees=yes

Units are S.I. units (second, meters, Newtons, ...)
If the header above contains a line with 'inDegrees', this indicates whether rotational values are in degrees (yes) or radians (no).

endheader
time	pelvis_rotation	pelvis_tilt	pelvis_list	pelvis_tx	pelvis_ty	pelvis_tz	hip_flexion_r	hip_adduction_r	hip_rotation_r	knee_angle_r	knee_rotation_r	knee_adduction_r	knee_angle_r_beta	ankle_angle_r	subtalar_angle_r	mtp_angle_r	hip_flexion_l	hip_adduction_l	hip_rotation_l	knee_angle_l	knee_rotation_l	knee_adduction_l	knee_angle_l_beta	ankle_angle_l	subtalar_angle_l	mtp_angle_l
      3.94500000	      8.02120009	    -40.52217321	      7.68571950	      0.00587384	      0.62089315	     -1.16618217	    110.70943210	    -47.68044521	      4.14192894	     82.23097285	      0.00000000	      9.89922111	      1.43520122	      8.19232512	      0.00000000	      0.00000000	    103.37574324	    -31.85417937	     -4.82553978	     75.34348986	      0.00000000	     -9.92100389	      1.31499197	      3.93134101	      0.00000000	      0.00000000
      3.95000000	      8.02109978	    -40.48751312	      7.64076814	      0.00613818	      0.61922639	     -1.16594669	    110.95291365	    -47.72035040	      4.34896774	     82.55644094	      0.00000000	      9.89978693	      1.44088171	      8.30182093	      0.00000000	      0.00000000	    103.63289065	    -31.92801713	     -4.61824478	     75.64907971	      0.00000000	     -9.92150575	      1.32032552	      4.00456463	      0.00000000	      0.00000000
      3.95500000	      8.00188177	    -40.50498569	      7.64010577	      0.00631602	      0.61755709	     -1.16575024	    111.31613578	    -47.70084395	      4.64874698	     82.88267656	      0.00000000	      9.90030288	      1.44657560	      8.38493880	      0.00000000	      0.00000000	    103.90625088	    -32.02239217	     -4.45914288	     75.95249694	      0.00000000	     -9.92197137	      1.32562115	      4.09553773	      0.00000000	      0.00000000
      3.96000000	      8.01010887	    -40.45387629	      7.58417426	      0.00662789	      0.61593222	     -1.16555712	    111.51377413	    -47.76418202	      4.81986651	     83.19220581	      0.00000000	      9.90089895	      1.45197790	      8.49273784	      0.00000000	      0.00000000	    104.15385657	    -32.07000300	     -4.22897225	     76.26090667	      0.00000000	     -9.92239207	      1.33100391	      4.19187259	      0.00000000	      0.00000000
      3.96500000	      8.02031127	    -40.39462924	      7.54386391	      0.00692357	      0.61427639	     -1.16535002	    111.72874242	    -47.81102288	      5.03452932	     83.51178688	      0.00000000	      9.90140835	      1.45755565	      8.62388183	      0.00000000	      0.00000000	    104.37889622	    -32.12913843	     -4.02718411	     76.55415005	      0.00000000	     -9.92294451	      1.33612197	      4.25087405	      0.00000000	      0.00000000
      3.97000000	      7.94527073	    -40.41760024	      7.51982040	      0.00712023	      0.61262309	     -1.16513639	    112.07873704	    -47.73666012	      5.32081583	     83.83163398	      0.00000000	      9.90186096	      1.46313803	      8.69676432	      0.00000000	      0.00000000	    104.65491171	    -32.26399385	     -3.85953216	     76.86125025	      0.00000000	     -9.92329933	      1.34148188	      4.33702402	      0.00000000	      0.00000000
      3.97500000	      7.84779801	    -40.40090286	      7.49014825	      0.00735427	      0.61095699	     -1.16493835	    112.38496727	    -47.65085333	      5.60744764	     84.14862190	      0.00000000	      9.90221134	      1.46867051	      8.79263554	      0.00000000	      0.00000000	    104.88002907	    -32.42634644	     -3.71464030	     77.16830349	      0.00000000	     -9.92378851	      1.34684097	      4.42657745	      0.00000000	      0.00000000
      3.98000000	      7.91188845	    -40.37213378	      7.46861400	      0.00763174	      0.60930141	     -1.16477295	    112.64447677	    -47.75836153	      5.80909917	     84.46788631	      0.00000000	      9.90287997	      1.47424273	      8.86458085	      0.00000000	      0.00000000	    105.15305251	    -32.40530467	     -3.46480427	     77.46976115	      0.00000000	     -9.92406068	      1.35210240	      4.52854275	      0.00000000	      0.00000000
      3.98500000	      7.85964850	    -40.33821497	      7.40483945	      0.00790482	      0.60768233	     -1.16459255	    112.86627046	    -47.73912987	      6.01671703	     84.76973596	      0.00000000	      9.90331043	      1.47951100	      8.99076813	      0.00000000	      0.00000000	    105.39535712	    -32.49960716	     -3.24730279	     77.76393778	      0.00000000	     -9.92449516	      1.35723675	      4.61570404	      0.00000000	      0.00000000
      3.99000000	      7.87103387	    -40.25280238	      7.38209552	      0.00829821	      0.60605129	     -1.16443624	    113.07140004	    -47.80745942	      6.23794980	     85.08627577	      0.00000000	      9.90395267	      1.48503566	      9.09104246	      0.00000000	      0.00000000	    105.56323733	    -32.54007711	     -3.06273134	     78.05522954	      0.00000000	     -9.92485314	      1.36232075	      4.78218148	      0.00000000	      0.00000000
